<?xml version="1.0" standalone="no"?>
<!DOCTYPE svg PUBLIC "-//W3C//DTD SVG 20010904//EN"
 "http://www.w3.org/TR/2001/REC-SVG-20010904/DTD/svg10.dtd">
<svg version="1.0" xmlns="http://www.w3.org/2000/svg"
 width="455.000000pt" height="549.000000pt" viewBox="0 0 455.000000 549.000000"
 preserveAspectRatio="xMidYMid meet">

<g transform="translate(0.000000,549.000000) scale(0.100000,-0.100000)"
fill="#000000" stroke="none">
<path d="M1963 4489 c-215 -37 -402 -212 -583 -544 -56 -102 -125 -181 -278
-315 -51 -46 -62 -61 -62 -87 0 -42 25 -68 87 -88 61 -19 69 -27 82 -85 14
-65 48 -90 118 -90 63 0 98 -17 152 -75 53 -57 80 -66 176 -63 l85 3 0 93 0
94 78 -79 c86 -88 150 -133 228 -162 63 -24 154 -38 154 -24 0 6 -24 13 -52
16 -81 8 -156 41 -232 102 -109 86 -160 154 -206 271 -22 57 -40 112 -40 123
0 25 -13 27 -30 6 -14 -17 -62 -20 -91 -5 -10 6 -28 29 -40 52 -25 49 -22 117
6 148 26 29 80 26 111 -5 28 -28 54 -31 154 -14 117 19 244 68 339 130 98 64
223 190 261 263 23 43 40 58 40 37 0 -5 40 -64 90 -131 52 -71 94 -139 101
-163 16 -59 5 -274 -18 -364 -25 -94 -15 -110 74 -119 l62 -7 -25 89 c-27 101
-30 187 -9 284 20 89 19 252 -1 321 -36 123 -125 244 -209 284 -21 9 -64 21
-94 24 -31 4 -69 14 -86 23 -91 48 -247 74 -342 57z m380 -350 c-30 -52 -132
-157 -197 -203 -114 -81 -248 -136 -366 -150 l-55 -7 65 29 c106 46 368 214
505 321 61 48 72 51 48 10z"/>
<path d="M3191 3924 c-15 -19 -21 -41 -21 -76 0 -63 37 -219 56 -234 16 -13
19 -28 4 -19 -5 3 -10 1 -10 -4 0 -6 4 -11 9 -11 13 0 32 26 24 34 -4 4 -1 4
8 1 8 -3 24 2 34 12 11 10 47 38 80 62 65 48 76 61 69 73 -3 5 0 7 8 6 9 -2
13 10 14 40 1 37 -3 45 -23 53 -31 11 -36 11 -28 -1 3 -6 -1 -7 -10 -4 -9 4
-34 -1 -55 -11 -35 -16 -41 -16 -54 -2 -8 8 -12 18 -8 22 4 5 2 5 -5 1 -9 -5
-9 -14 -3 -31 12 -31 -9 -34 -35 -5 -15 16 -15 22 -5 35 7 8 17 15 23 15 5 0
16 8 23 18 10 14 10 20 -3 35 -24 26 -68 22 -92 -9z"/>
<path d="M1573 3739 c32 -25 34 -35 7 -42 -11 -3 -20 -11 -20 -18 0 -10 3 -10
12 -1 19 19 45 14 53 -10 3 -13 9 -18 11 -11 7 16 -32 89 -51 97 -33 12 -39 5
-12 -15z"/>
<path d="M1992 3719 c2 -8 20 -22 39 -32 55 -29 139 -10 139 31 0 13 -2 13
-17 -1 -38 -34 -70 -31 -157 11 -5 3 -7 -2 -4 -9z"/>
<path d="M2400 3701 c0 -32 118 -47 147 -18 20 20 10 35 -12 17 -15 -12 -85
-10 -117 4 -11 5 -18 4 -18 -3z"/>
<path d="M2300 3658 c0 -25 11 -66 26 -98 24 -51 24 -55 8 -67 -22 -16 -39
-16 -66 -2 -27 14 -38 1 -14 -17 40 -29 116 -5 116 36 0 10 -11 40 -25 66 -14
27 -25 64 -25 85 0 22 -4 39 -10 39 -5 0 -10 -19 -10 -42z"/>
<path d="M2100 3404 c0 -3 9 -19 21 -35 40 -56 128 -85 202 -66 48 13 29 25
-31 20 -67 -6 -105 8 -145 57 -23 27 -47 39 -47 24z"/>
<path d="M2386 3242 c-3 -5 3 -17 13 -26 22 -20 72 -18 79 2 3 9 -3 11 -22 6
-18 -4 -33 -1 -45 10 -11 10 -22 13 -25 8z"/>
<path d="M2596 3182 c-3 -5 3 -17 13 -26 20 -19 91 -19 92 -1 1 6 -13 8 -31 7
-19 -2 -39 3 -50 13 -10 9 -21 12 -24 7z"/>
<path d="M2265 3146 c33 -13 72 -28 88 -34 15 -6 27 -8 27 -3 0 10 -133 61
-158 60 -9 0 10 -10 43 -23z"/>
<path d="M2463 3133 c8 -32 9 -38 8 -56 -1 -16 -3 -16 -26 -1 -16 11 -25 12
-25 5 0 -20 70 -43 106 -36 50 9 54 27 5 19 -35 -6 -41 -4 -41 11 0 10 7 26
16 36 20 22 10 39 -23 39 -19 0 -24 -4 -20 -17z"/>
<path d="M2220 3099 c60 -10 108 -9 55 2 -22 4 -53 8 -70 7 -22 0 -19 -3 15
-9z"/>
<path d="M2335 3080 c27 -12 35 -12 35 0 0 6 -12 10 -27 9 -25 0 -26 -1 -8 -9z"/>
<path d="M1515 3065 c-5 -1 -37 -8 -69 -15 -43 -9 -55 -15 -45 -22 10 -7 8 -8
-10 -5 -26 6 -73 -11 -65 -24 3 -5 -1 -6 -9 -3 -8 3 -20 -2 -27 -11 -11 -13
-10 -15 6 -9 23 9 18 4 -21 -21 -30 -18 -30 -18 -16 1 8 10 -6 -1 -32 -26 -26
-24 -45 -51 -42 -58 2 -7 1 -11 -3 -8 -11 6 -57 -93 -73 -154 -23 -93 13 -307
79 -465 16 -38 32 -79 36 -90 6 -16 9 -17 17 -5 9 12 10 12 5 -3 -6 -20 69
-167 85 -167 6 0 8 -4 4 -9 -3 -5 0 -13 6 -17 8 -4 9 -3 5 4 -4 7 -2 12 3 12
6 0 11 -7 11 -15 0 -8 6 -14 13 -12 7 1 11 -7 10 -21 -3 -26 25 -75 38 -66 5
3 6 -2 3 -10 -3 -9 -1 -16 4 -16 6 0 14 -10 18 -22 12 -41 22 -47 54 -35 24 9
27 14 17 27 -10 13 -10 13 5 2 15 -12 33 -8 127 29 60 23 108 46 105 51 -3 4
1 5 9 2 8 -3 57 13 109 35 53 23 100 41 106 41 6 0 9 8 6 18 -3 9 6 -1 20 -23
14 -22 26 -44 26 -48 0 -5 15 8 34 27 18 20 38 36 45 36 6 0 11 4 11 9 0 5 25
33 56 62 31 30 64 62 72 71 12 13 18 15 24 5 5 -6 5 11 1 38 -4 28 -8 85 -8
128 0 59 -3 76 -13 72 -72 -27 -308 -70 -347 -63 -17 4 -28 1 -32 -8 -4 -11
-7 -11 -19 1 -8 8 -21 12 -30 8 -9 -3 -14 0 -12 8 6 25 -28 19 -57 -10 -17
-17 -36 -31 -42 -31 -7 0 -13 -7 -13 -16 0 -11 -5 -14 -16 -10 -13 5 -15 2
-11 -14 3 -12 0 -20 -7 -20 -16 0 -36 21 -36 37 0 13 96 113 109 113 8 0 18
19 40 74 9 22 9 32 -1 45 -10 13 -9 13 8 -1 27 -24 34 -23 34 5 0 16 3 18 9 8
7 -10 13 -11 30 -2 24 13 29 26 6 17 -27 -10 -61 15 -83 60 -18 35 -20 48 -11
68 15 32 46 46 216 100 143 46 178 62 220 103 12 13 27 23 33 23 5 0 10 6 10
14 0 18 27 29 34 13 2 -7 5 -4 5 6 1 10 15 36 32 57 31 39 32 40 14 67 l-17
28 23 -23 c84 -80 150 -108 233 -98 80 9 75 24 -7 18 -87 -5 -125 10 -199 81
-42 41 -52 46 -100 48 -49 3 -53 1 -52 -19 0 -12 -3 -22 -7 -22 -5 0 -6 -6 -3
-14 8 -21 -25 -85 -53 -103 -23 -15 -166 -36 -158 -23 2 3 -27 14 -65 24 -38
9 -88 30 -112 46 -23 16 -46 26 -52 23 -5 -4 -6 -1 -2 6 5 7 1 20 -7 29 -8 9
-18 27 -21 40 -7 21 -12 22 -109 21 -56 0 -106 -2 -112 -4z m90 -15 c3 -6 -1
-7 -9 -4 -18 7 -21 14 -7 14 6 0 13 -4 16 -10z m-120 -59 c-3 -6 3 -14 12 -20
10 -6 13 -11 7 -11 -15 0 -36 25 -27 33 10 10 15 8 8 -2z m-14 -48 c13 -16 12
-17 -3 -4 -10 7 -18 15 -18 17 0 8 8 3 21 -13z m101 -20 c-6 -3 -9 -10 -5 -16
4 -7 -1 -6 -10 2 -21 17 -21 17 6 18 12 0 16 -1 9 -4z m-67 -13 c3 -5 1 -10
-4 -10 -6 0 -11 5 -11 10 0 6 2 10 4 10 3 0 8 -4 11 -10z m21 -45 c-3 -9 0
-15 10 -15 9 0 12 5 8 13 -5 9 -4 9 6 0 14 -13 5 -33 -14 -33 -8 0 -16 -9 -19
-20 -3 -11 -13 -20 -22 -20 -20 0 -44 -27 -45 -49 0 -19 -121 -131 -141 -131
-5 0 -9 -9 -9 -20 0 -25 -12 -25 -35 0 -17 19 -17 20 6 46 27 28 33 34 70 67
14 12 28 31 32 41 4 10 10 17 12 14 6 -6 115 102 115 114 0 4 7 8 16 8 10 0
14 -6 10 -15z m47 -40 c-3 -9 -8 -14 -10 -11 -3 3 -2 9 2 15 9 16 15 13 8 -4z
m75 3 c-1 -7 4 -24 11 -38 l12 -25 -19 24 c-11 14 -18 31 -15 38 7 17 15 17
11 1z m-67 -31 c-10 -9 -11 -8 -5 6 3 10 9 15 12 12 3 -3 0 -11 -7 -18z m39
-13 c0 -8 -19 -13 -24 -6 -3 5 1 9 9 9 8 0 15 -2 15 -3z m13 -51 c-3 -7 -6
-13 -8 -13 -2 0 -5 6 -8 13 -3 8 1 14 8 14 7 0 11 -6 8 -14z m67 -8 c7 -9 8
-15 2 -15 -5 0 -12 7 -16 15 -3 8 -4 15 -2 15 2 0 9 -7 16 -15z m0 -80 c0 -5
-5 -3 -10 5 -5 8 -10 20 -10 25 0 6 5 3 10 -5 5 -8 10 -19 10 -25z m44 -101
c3 -8 2 -12 -4 -9 -6 3 -10 10 -10 16 0 14 7 11 14 -7z m205 -343 c6 -19 9
-36 7 -38 -2 -2 -11 17 -20 44 -9 26 -12 43 -7 38 4 -6 13 -25 20 -44z m-29
-46 c0 -5 -5 -3 -10 5 -5 8 -10 20 -10 25 0 6 5 3 10 -5 5 -8 10 -19 10 -25z
m99 -150 c0 -5 -4 -3 -9 5 -5 8 -9 22 -9 30 0 16 17 -16 18 -35z"/>
<path d="M2685 3061 c67 -14 265 -23 265 -11 0 6 -25 10 -58 10 -33 0 -101 2
-153 5 -65 3 -82 2 -54 -4z"/>
<path d="M2650 3043 c0 -4 59 -24 130 -44 72 -20 130 -33 130 -29 0 4 -51 21
-112 39 -62 18 -121 34 -130 37 -10 3 -18 2 -18 -3z"/>
<path d="M2281 2813 c-13 -32 -25 -90 -28 -130 l-6 -71 -76 -36 c-42 -20 -84
-36 -93 -36 -9 0 -20 -5 -24 -12 -25 -41 187 54 281 125 66 50 202 184 194
191 -2 3 -48 -37 -101 -87 -52 -51 -110 -100 -127 -110 l-31 -18 0 51 c0 43
14 98 45 173 4 9 3 17 -3 17 -5 0 -19 -26 -31 -57z"/>
<path d="M2555 2525 c-33 -24 -106 -66 -162 -92 -107 -50 -141 -78 -53 -43 99
39 249 127 279 163 23 28 -1 18 -64 -28z"/>
<path d="M1898 2493 c7 -3 16 -2 19 1 4 3 -2 6 -13 5 -11 0 -14 -3 -6 -6z"/>
<path d="M2701 2334 c-123 -43 -223 -148 -278 -291 -19 -51 -27 -93 -31 -170
-2 -57 -1 -103 4 -103 5 0 9 37 10 83 0 46 8 108 18 142 35 119 135 252 227
301 19 10 70 26 114 35 78 17 79 17 30 18 -27 0 -70 -7 -94 -15z"/>
<path d="M2281 2060 c-1 -9 -11 -16 -22 -17 -25 -2 -59 -30 -59 -49 0 -16 -64
-84 -79 -84 -6 0 -11 -4 -11 -10 0 -5 -6 -10 -14 -10 -7 0 -16 -9 -19 -21 -3
-12 -10 -18 -16 -14 -15 9 -14 5 13 -56 12 -30 26 -67 30 -82 4 -17 11 -25 18
-21 7 5 9 2 5 -9 -12 -32 14 -27 133 24 106 45 143 69 109 69 -5 0 -8 4 -5 9
4 5 -3 31 -15 58 -12 26 -31 89 -44 138 -13 50 -24 83 -24 75z"/>
<path d="M1524 1630 c4 -14 15 -67 23 -119 12 -66 19 -87 24 -73 4 11 17 23
28 27 12 3 21 11 21 16 0 19 -2 24 -11 22 -4 -2 -6 3 -3 11 3 7 -2 20 -10 28
-8 9 -29 37 -47 64 -20 31 -29 40 -25 24z"/>
<path d="M1637 1423 c3 -7 -2 -13 -11 -13 -9 0 -19 -7 -22 -15 -4 -8 -11 -15
-18 -15 -18 0 -18 -52 -1 -206 10 -87 16 -232 16 -390 l0 -252 55 -7 c31 -4
58 -4 61 -1 4 3 12 1 18 -4 7 -6 25 -12 41 -14 16 -2 72 -10 124 -17 117 -16
564 -17 674 -2 43 6 82 17 86 23 5 8 9 9 11 2 3 -8 16 -8 44 -1 22 6 56 12 75
15 45 6 143 31 178 46 15 6 33 12 40 14 8 1 16 5 20 8 4 5 -16 205 -49 471 -4
39 -8 100 -9 138 0 54 -3 67 -16 67 -10 0 -13 -6 -10 -18 7 -20 -60 -88 -81
-84 -8 2 -10 -3 -7 -13 4 -10 0 -15 -10 -15 -9 0 -16 -7 -16 -16 0 -12 -6 -15
-21 -11 -18 5 -20 2 -15 -19 8 -29 -5 -31 -29 -4 -18 19 -14 57 5 45 5 -3 10
-1 10 4 0 6 43 54 96 107 53 53 92 99 88 103 -5 4 -64 5 -132 2 -67 -3 -122
-2 -122 3 0 4 -18 6 -39 4 -22 -2 -37 0 -35 4 3 5 -8 8 -25 8 -16 0 -33 -5
-36 -10 -4 -6 -25 -20 -47 -31 -27 -14 -37 -23 -29 -29 10 -5 8 -9 -4 -13 -9
-4 -13 -3 -10 3 9 15 5 14 -91 -31 -48 -22 -127 -49 -174 -59 -69 -15 -90 -25
-112 -49 -14 -16 -29 -27 -32 -24 -10 11 -34 -17 -40 -47 -3 -19 -15 -35 -30
-42 -14 -6 -23 -15 -20 -19 3 -5 -1 -9 -8 -9 -16 0 -62 -41 -84 -76 -16 -23
-18 -24 -35 -8 -23 21 -25 44 -4 44 8 0 15 4 15 10 0 11 131 144 174 178 l30
22 -30 0 c-16 0 -54 7 -84 16 -30 8 -63 16 -72 17 -9 1 -15 4 -13 8 7 11 -33
41 -45 34 -6 -3 -9 -2 -8 3 4 12 -93 118 -104 114 -5 -1 -7 2 -4 7 3 5 -1 14
-9 21 -13 11 -14 10 -9 -6 4 -10 4 -16 -1 -12 -4 4 -8 18 -9 30 -1 18 -7 23
-28 24 -18 1 -25 -3 -21 -13z m855 -603 c19 -17 19 -20 5 -26 -9 -3 -15 -10
-12 -14 6 -10 -24 -35 -32 -26 -9 8 -43 -24 -43 -41 0 -19 -60 -83 -77 -83 -8
0 -11 -5 -8 -11 4 -6 -2 -13 -14 -16 -12 -3 -21 -12 -21 -20 0 -10 -6 -12 -21
-8 -15 5 -19 4 -15 -4 10 -16 -2 -31 -19 -25 -30 12 -23 35 27 86 27 29 54 52
59 51 5 -2 9 3 9 10 0 7 21 30 46 52 58 50 84 76 84 87 0 13 9 9 32 -12z"/>
</g>
</svg>
